<?xml version="1.0" encoding="utf-8"?>
<!-- Generator: Adobe Illustrator 15.0.2, SVG Export Plug-In . SVG Version: 6.00 Build 0)  -->
<!DOCTYPE svg PUBLIC "-//W3C//DTD SVG 1.0//EN" "http://www.w3.org/TR/2001/REC-SVG-20010904/DTD/svg10.dtd">
<svg version="1.0" id="Layer_1" xmlns="http://www.w3.org/2000/svg" xmlns:xlink="http://www.w3.org/1999/xlink" x="0px" y="0px"
	 width="125px" height="35px" viewBox="0 0 125 35" enable-background="new 0 0 125 35" xml:space="preserve">
<g display="none">
	<rect x="1.833" y="1.833" display="inline" fill="none" width="162.5" height="27.5"/>
	<path display="inline" fill="#010101" d="M4.553,15.53c0-1.248,0-1.408-0.864-1.984l-0.288-0.192
		c-0.128-0.128-0.128-0.48,0.032-0.576c0.832-0.352,2.335-1.12,3.167-1.728c0.192,0,0.32,0.064,0.384,0.224
		c-0.064,0.576-0.128,1.056-0.128,1.472c0,0.224,0.064,0.416,0.288,0.416c0.416-0.192,2.432-1.504,4.48-1.504
		c3.231,0,5.312,2.624,5.312,5.855c0,4.447-3.264,7.647-7.808,7.647c-0.576,0-1.472-0.063-1.76-0.128
		c-0.288,0.064-0.448,0.225-0.448,0.896v3.359c0,2.271,0.064,2.56,1.216,2.72l1.248,0.16c0.224,0.159,0.16,0.704-0.064,0.8
		c-1.536-0.064-2.464-0.096-3.583-0.096c-1.152,0-2.112,0.031-3.008,0.096c-0.224-0.096-0.288-0.641-0.064-0.8l0.672-0.097
		c1.184-0.159,1.216-0.479,1.216-2.783V15.53z M6.921,21.481c0,1.024,0.32,1.408,0.96,1.92c0.64,0.479,1.632,0.704,2.304,0.704
		c2.624,0,4.16-2.432,4.16-5.76c0-2.56-1.44-5.151-4.32-5.151c-1.376,0-2.368,0.512-2.72,0.896
		c-0.288,0.352-0.384,0.832-0.384,1.888V21.481z"/>
	<path display="inline" fill="#010101" d="M21.193,15.53c0-1.248,0-1.408-0.864-1.984l-0.288-0.192
		c-0.128-0.128-0.128-0.48,0.032-0.576c0.736-0.256,2.432-1.088,3.232-1.568c0.16,0.032,0.256,0.096,0.256,0.224v1.855
		c0,0.16,0.032,0.256,0.096,0.288c1.12-0.928,2.336-1.92,3.52-1.92c0.8,0,1.44,0.512,1.44,1.28c0,1.056-0.864,1.472-1.376,1.472
		c-0.32,0-0.48-0.096-0.704-0.224c-0.48-0.32-0.96-0.512-1.408-0.512c-0.512,0-0.896,0.288-1.152,0.64
		c-0.32,0.448-0.416,1.376-0.416,2.464v4.351c0,2.305,0.064,2.688,1.28,2.785l1.152,0.096c0.224,0.16,0.16,0.703-0.064,0.8
		c-1.504-0.063-2.432-0.097-3.552-0.097c-1.152,0-2.112,0.033-2.944,0.097c-0.224-0.097-0.288-0.64-0.064-0.8l0.608-0.096
		c1.184-0.192,1.216-0.48,1.216-2.785V15.53z"/>
	<path display="inline" fill="#010101" d="M42.92,18.281c0,4-2.752,6.88-6.751,6.88c-3.68,0-6.56-2.592-6.56-6.591
		c0-4.032,3.04-6.912,6.815-6.912C40.008,11.658,42.92,14.346,42.92,18.281z M36.04,12.618c-2.112,0-3.68,2.016-3.68,5.536
		c0,2.911,1.312,6.047,4.128,6.047s3.68-2.943,3.68-5.407C40.168,16.074,39.08,12.618,36.04,12.618z"/>
	<path display="inline" fill="#010101" d="M46.76,15.53c0-1.248,0-1.408-0.864-1.984l-0.288-0.192
		c-0.128-0.128-0.128-0.48,0.032-0.576c0.832-0.352,2.335-1.12,3.167-1.728c0.192,0,0.32,0.064,0.384,0.224
		c-0.064,0.576-0.128,1.056-0.128,1.472c0,0.224,0.064,0.416,0.288,0.416c0.416-0.192,2.432-1.504,4.48-1.504
		c3.231,0,5.312,2.624,5.312,5.855c0,4.447-3.264,7.647-7.808,7.647c-0.576,0-1.472-0.063-1.76-0.128
		c-0.288,0.064-0.448,0.225-0.448,0.896v3.359c0,2.271,0.064,2.56,1.216,2.72l1.248,0.16c0.224,0.159,0.16,0.704-0.064,0.8
		c-1.536-0.064-2.464-0.096-3.583-0.096c-1.152,0-2.112,0.031-3.008,0.096c-0.224-0.096-0.288-0.641-0.064-0.8l0.672-0.097
		c1.184-0.159,1.216-0.479,1.216-2.783V15.53z M49.128,21.481c0,1.024,0.32,1.408,0.96,1.92c0.64,0.479,1.632,0.704,2.304,0.704
		c2.624,0,4.16-2.432,4.16-5.76c0-2.56-1.44-5.151-4.32-5.151c-1.376,0-2.368,0.512-2.72,0.896
		c-0.288,0.352-0.384,0.832-0.384,1.888V21.481z"/>
	<path display="inline" fill="#010101" d="M74.695,18.281c0,4-2.752,6.88-6.752,6.88c-3.68,0-6.559-2.592-6.559-6.591
		c0-4.032,3.04-6.912,6.815-6.912C71.783,11.658,74.695,14.346,74.695,18.281z M67.815,12.618c-2.112,0-3.68,2.016-3.68,5.536
		c0,2.911,1.312,6.047,4.128,6.047s3.68-2.943,3.68-5.407C71.943,16.074,70.855,12.618,67.815,12.618z"/>
	<path display="inline" fill="#010101" d="M78.951,15.53c0-1.248,0-1.408-0.863-1.984L77.8,13.354
		c-0.128-0.128-0.128-0.48,0.032-0.576c0.736-0.256,2.432-1.088,3.231-1.568c0.16,0.032,0.256,0.096,0.256,0.224v1.855
		c0,0.16,0.032,0.256,0.097,0.288c1.119-0.928,2.336-1.92,3.52-1.92c0.8,0,1.439,0.512,1.439,1.28c0,1.056-0.863,1.472-1.376,1.472
		c-0.319,0-0.479-0.096-0.704-0.224c-0.479-0.32-0.959-0.512-1.408-0.512c-0.512,0-0.895,0.288-1.151,0.64
		c-0.319,0.448-0.416,1.376-0.416,2.464v4.351c0,2.305,0.063,2.688,1.28,2.785l1.152,0.096c0.223,0.16,0.159,0.703-0.064,0.8
		c-1.504-0.063-2.432-0.097-3.552-0.097c-1.151,0-2.112,0.033-2.944,0.097c-0.224-0.097-0.287-0.64-0.063-0.8l0.608-0.096
		c1.184-0.192,1.215-0.48,1.215-2.785V15.53z"/>
	<path display="inline" fill="#010101" d="M92.455,13.45c-0.544,0-0.576,0.096-0.576,0.768v5.983c0,1.856,0.225,3.553,2.336,3.553
		c0.32,0,0.607-0.064,0.863-0.16c0.289-0.096,0.705-0.448,0.801-0.448c0.256,0,0.384,0.353,0.32,0.544
		c-0.576,0.672-1.729,1.472-3.36,1.472c-2.752,0-3.327-1.536-3.327-3.456v-7.327c0-0.864-0.033-0.928-0.672-0.928h-0.896
		c-0.191-0.128-0.225-0.48-0.096-0.672c0.928-0.288,1.728-0.704,2.047-0.992c0.416-0.384,1.024-1.248,1.344-1.888
		c0.16-0.064,0.545-0.064,0.673,0.16v1.44c0,0.576,0.032,0.608,0.575,0.608h3.553c0.383,0.288,0.319,1.152,0.031,1.344H92.455z"/>
	<path display="inline" fill="#010101" d="M99.654,15.53c0-1.248,0-1.408-0.863-1.984l-0.288-0.192
		c-0.128-0.128-0.128-0.48,0.032-0.576c0.736-0.256,2.56-1.088,3.295-1.568c0.16,0,0.289,0.064,0.32,0.192
		c-0.064,1.12-0.127,2.656-0.127,3.968v5.759c0,2.305,0.062,2.625,1.215,2.785l0.672,0.096c0.225,0.16,0.16,0.703-0.064,0.8
		c-0.959-0.063-1.887-0.097-3.007-0.097c-1.151,0-2.112,0.033-3.008,0.097c-0.224-0.097-0.288-0.64-0.063-0.8l0.672-0.096
		c1.184-0.16,1.215-0.48,1.215-2.785V15.53z M102.311,6.411c0,1.152-0.801,1.664-1.695,1.664c-0.992,0-1.633-0.736-1.633-1.6
		c0-1.056,0.769-1.728,1.729-1.728C101.67,4.747,102.311,5.515,102.311,6.411z"/>
	<path display="inline" fill="#010101" d="M119.174,18.281c0,4-2.752,6.88-6.75,6.88c-3.68,0-6.561-2.592-6.561-6.591
		c0-4.032,3.041-6.912,6.816-6.912C116.264,11.658,119.174,14.346,119.174,18.281z M112.295,12.618c-2.111,0-3.68,2.016-3.68,5.536
		c0,2.911,1.312,6.047,4.127,6.047c2.816,0,3.68-2.943,3.68-5.407C116.422,16.074,115.334,12.618,112.295,12.618z"/>
</g>
<g>
	<rect x="1.833" y="1.833" fill="none" width="162.5" height="27.5"/>
	<path fill="#FFFFFF" d="M4.553,15.53c0-1.248,0-1.408-0.864-1.984l-0.288-0.192c-0.128-0.128-0.128-0.48,0.032-0.576
		c0.832-0.352,2.335-1.12,3.167-1.728c0.192,0,0.32,0.064,0.384,0.224c-0.064,0.576-0.128,1.056-0.128,1.472
		c0,0.224,0.064,0.416,0.288,0.416c0.416-0.192,2.432-1.504,4.48-1.504c3.231,0,5.312,2.624,5.312,5.855
		c0,4.447-3.264,7.647-7.808,7.647c-0.576,0-1.472-0.063-1.76-0.128c-0.288,0.064-0.448,0.225-0.448,0.896v3.359
		c0,2.271,0.064,2.56,1.216,2.72l1.248,0.16c0.224,0.159,0.16,0.704-0.064,0.8c-1.536-0.064-2.464-0.096-3.583-0.096
		c-1.152,0-2.112,0.031-3.008,0.096c-0.224-0.096-0.288-0.641-0.064-0.8l0.672-0.097c1.184-0.159,1.216-0.479,1.216-2.783V15.53z
		 M6.921,21.481c0,1.024,0.32,1.408,0.96,1.92c0.64,0.479,1.632,0.704,2.304,0.704c2.624,0,4.16-2.432,4.16-5.76
		c0-2.56-1.44-5.151-4.32-5.151c-1.376,0-2.368,0.512-2.72,0.896c-0.288,0.352-0.384,0.832-0.384,1.888V21.481z"/>
	<path fill="#FFFFFF" d="M21.193,15.53c0-1.248,0-1.408-0.864-1.984l-0.288-0.192c-0.128-0.128-0.128-0.48,0.032-0.576
		c0.736-0.256,2.432-1.088,3.232-1.568c0.16,0.032,0.256,0.096,0.256,0.224v1.855c0,0.16,0.032,0.256,0.096,0.288
		c1.12-0.928,2.336-1.92,3.52-1.92c0.8,0,1.44,0.512,1.44,1.28c0,1.056-0.864,1.472-1.376,1.472c-0.32,0-0.48-0.096-0.704-0.224
		c-0.48-0.32-0.96-0.512-1.408-0.512c-0.512,0-0.896,0.288-1.152,0.64c-0.32,0.448-0.416,1.376-0.416,2.464v4.351
		c0,2.305,0.064,2.688,1.28,2.785l1.152,0.096c0.224,0.16,0.16,0.703-0.064,0.8c-1.504-0.063-2.432-0.097-3.552-0.097
		c-1.152,0-2.112,0.033-2.944,0.097c-0.224-0.097-0.288-0.64-0.064-0.8l0.608-0.096c1.184-0.192,1.216-0.48,1.216-2.785V15.53z"/>
	<path fill="#FFFFFF" d="M42.92,18.281c0,4-2.752,6.88-6.751,6.88c-3.68,0-6.56-2.592-6.56-6.591c0-4.032,3.04-6.912,6.815-6.912
		C40.008,11.658,42.92,14.346,42.92,18.281z M36.04,12.618c-2.112,0-3.68,2.016-3.68,5.536c0,2.911,1.312,6.047,4.128,6.047
		s3.68-2.943,3.68-5.407C40.168,16.074,39.08,12.618,36.04,12.618z"/>
	<path fill="#FFFFFF" d="M46.76,15.53c0-1.248,0-1.408-0.864-1.984l-0.288-0.192c-0.128-0.128-0.128-0.48,0.032-0.576
		c0.832-0.352,2.335-1.12,3.167-1.728c0.192,0,0.32,0.064,0.384,0.224c-0.064,0.576-0.128,1.056-0.128,1.472
		c0,0.224,0.064,0.416,0.288,0.416c0.416-0.192,2.432-1.504,4.48-1.504c3.231,0,5.312,2.624,5.312,5.855
		c0,4.447-3.264,7.647-7.808,7.647c-0.576,0-1.472-0.063-1.76-0.128c-0.288,0.064-0.448,0.225-0.448,0.896v3.359
		c0,2.271,0.064,2.56,1.216,2.72l1.248,0.16c0.224,0.159,0.16,0.704-0.064,0.8c-1.536-0.064-2.464-0.096-3.583-0.096
		c-1.152,0-2.112,0.031-3.008,0.096c-0.224-0.096-0.288-0.641-0.064-0.8l0.672-0.097c1.184-0.159,1.216-0.479,1.216-2.783V15.53z
		 M49.128,21.481c0,1.024,0.32,1.408,0.96,1.92c0.64,0.479,1.632,0.704,2.304,0.704c2.624,0,4.16-2.432,4.16-5.76
		c0-2.56-1.44-5.151-4.32-5.151c-1.376,0-2.368,0.512-2.72,0.896c-0.288,0.352-0.384,0.832-0.384,1.888V21.481z"/>
	<path fill="#FFFFFF" d="M74.695,18.281c0,4-2.752,6.88-6.752,6.88c-3.68,0-6.559-2.592-6.559-6.591c0-4.032,3.04-6.912,6.815-6.912
		C71.783,11.658,74.695,14.346,74.695,18.281z M67.815,12.618c-2.112,0-3.68,2.016-3.68,5.536c0,2.911,1.312,6.047,4.128,6.047
		s3.68-2.943,3.68-5.407C71.943,16.074,70.855,12.618,67.815,12.618z"/>
	<path fill="#FFFFFF" d="M78.951,15.53c0-1.248,0-1.408-0.863-1.984L77.8,13.354c-0.128-0.128-0.128-0.48,0.032-0.576
		c0.736-0.256,2.432-1.088,3.231-1.568c0.16,0.032,0.256,0.096,0.256,0.224v1.855c0,0.16,0.032,0.256,0.097,0.288
		c1.119-0.928,2.336-1.92,3.52-1.92c0.8,0,1.439,0.512,1.439,1.28c0,1.056-0.863,1.472-1.376,1.472
		c-0.319,0-0.479-0.096-0.704-0.224c-0.479-0.32-0.959-0.512-1.408-0.512c-0.512,0-0.895,0.288-1.151,0.64
		c-0.319,0.448-0.416,1.376-0.416,2.464v4.351c0,2.305,0.063,2.688,1.28,2.785l1.152,0.096c0.223,0.16,0.159,0.703-0.064,0.8
		c-1.504-0.063-2.432-0.097-3.552-0.097c-1.151,0-2.112,0.033-2.944,0.097c-0.224-0.097-0.287-0.64-0.063-0.8l0.608-0.096
		c1.184-0.192,1.215-0.48,1.215-2.785V15.53z"/>
	<path fill="#FFFFFF" d="M92.455,13.45c-0.544,0-0.576,0.096-0.576,0.768v5.983c0,1.856,0.225,3.553,2.336,3.553
		c0.32,0,0.607-0.064,0.863-0.16c0.289-0.096,0.705-0.448,0.801-0.448c0.256,0,0.384,0.353,0.32,0.544
		c-0.576,0.672-1.729,1.472-3.36,1.472c-2.752,0-3.327-1.536-3.327-3.456v-7.327c0-0.864-0.033-0.928-0.672-0.928h-0.896
		c-0.191-0.128-0.225-0.48-0.096-0.672c0.928-0.288,1.728-0.704,2.047-0.992c0.416-0.384,1.024-1.248,1.344-1.888
		c0.16-0.064,0.545-0.064,0.673,0.16v1.44c0,0.576,0.032,0.608,0.575,0.608h3.553c0.383,0.288,0.319,1.152,0.031,1.344H92.455z"/>
	<path fill="#FFFFFF" d="M99.654,15.53c0-1.248,0-1.408-0.863-1.984l-0.288-0.192c-0.128-0.128-0.128-0.48,0.032-0.576
		c0.736-0.256,2.56-1.088,3.295-1.568c0.16,0,0.289,0.064,0.32,0.192c-0.064,1.12-0.127,2.656-0.127,3.968v5.759
		c0,2.305,0.062,2.625,1.215,2.785l0.672,0.096c0.225,0.16,0.16,0.703-0.064,0.8c-0.959-0.063-1.887-0.097-3.007-0.097
		c-1.151,0-2.112,0.033-3.008,0.097c-0.224-0.097-0.288-0.64-0.063-0.8l0.672-0.096c1.184-0.16,1.215-0.48,1.215-2.785V15.53z
		 M102.311,6.411c0,1.152-0.801,1.664-1.695,1.664c-0.992,0-1.633-0.736-1.633-1.6c0-1.056,0.769-1.728,1.729-1.728
		C101.67,4.747,102.311,5.515,102.311,6.411z"/>
	<path fill="#FFFFFF" d="M119.174,18.281c0,4-2.752,6.88-6.75,6.88c-3.68,0-6.561-2.592-6.561-6.591
		c0-4.032,3.041-6.912,6.816-6.912C116.264,11.658,119.174,14.346,119.174,18.281z M112.295,12.618c-2.111,0-3.68,2.016-3.68,5.536
		c0,2.911,1.312,6.047,4.127,6.047c2.816,0,3.68-2.943,3.68-5.407C116.422,16.074,115.334,12.618,112.295,12.618z"/>
</g>
</svg>
